<?xml version="1.0" encoding="UTF-8"?>
<svg width="650px" height="462px" viewBox="0 0 650 462" version="1.1" xmlns="http://www.w3.org/2000/svg" xmlns:xlink="http://www.w3.org/1999/xlink">
    <!-- Generator: Sketch 51.3 (57544) - http://www.bohemiancoding.com/sketch -->
    <title>Group 8</title>
    <desc>Created with Sketch.</desc>
    <defs>
        <linearGradient x1="50%" y1="0%" x2="50%" y2="100%" id="linearGradient-1">
            <stop stop-color="#FF956D" offset="0%"></stop>
            <stop stop-color="#FF5C3B" offset="100%"></stop>
        </linearGradient>
        <linearGradient x1="50%" y1="117.43094%" x2="50%" y2="-18.3042326%" id="linearGradient-2">
            <stop stop-color="#C7176A" offset="0%"></stop>
            <stop stop-color="#E99B52" offset="50.5531973%"></stop>
            <stop stop-color="#EFDF02" offset="100%"></stop>
        </linearGradient>
        <linearGradient x1="50%" y1="0%" x2="50%" y2="100%" id="linearGradient-3">
            <stop stop-color="#FF956D" offset="0%"></stop>
            <stop stop-color="#FF3107" offset="100%"></stop>
        </linearGradient>
        <linearGradient x1="50%" y1="0%" x2="50%" y2="108.813538%" id="linearGradient-4">
            <stop stop-color="#34B0F3" offset="0%"></stop>
            <stop stop-color="#D14062" offset="100%"></stop>
        </linearGradient>
    </defs>
    <g id="Page-1" stroke="none" stroke-width="1" fill="none" fill-rule="evenodd">
        <g id="切图" transform="translate(-50.000000, -1084.000000)">
            <g id="Group-8-Copy" transform="translate(50.000000, 1081.000000)">
                <g id="Group-8">
                    <g id="Group-2" transform="translate(0.000000, 117.000000)">
                        <rect id="Rectangle-3-Copy" fill="url(#linearGradient-1)" x="0" y="0" width="650" height="250" rx="10"></rect>
                        <g id="Group" transform="translate(0.000000, 169.000000)" fill="#FFFFFF">
                            <rect id="Rectangle-3" x="0" y="59" width="650" height="120" rx="10"></rect>
                            <ellipse id="Oval" cx="55.5" cy="71" rx="55.5" ry="49"></ellipse>
                            <ellipse id="Oval-Copy" cx="134.5" cy="74.5" rx="46.5" ry="40.5"></ellipse>
                            <ellipse id="Oval-Copy-2" cx="206.5" cy="55.5" rx="61.5" ry="53.5"></ellipse>
                            <ellipse id="Oval-Copy-3" cx="281.5" cy="55.5" rx="48.5" ry="42.5"></ellipse>
                            <ellipse id="Oval-Copy-4" cx="344" cy="67.5" rx="39" ry="34.5"></ellipse>
                            <ellipse id="Oval-Copy-5" cx="530.5" cy="59.5" rx="68.5" ry="59.5"></ellipse>
                            <ellipse id="Oval-Copy-7" cx="453.5" cy="55.5" rx="40.5" ry="35.5"></ellipse>
                            <ellipse id="Oval-Copy-8" cx="391.5" cy="48.5" rx="40.5" ry="35.5"></ellipse>
                            <ellipse id="Oval-Copy-6" cx="603" cy="66" rx="47" ry="41"></ellipse>
                        </g>
                    </g>
                    <g id="Group-3" transform="translate(27.000000, 0.000000)">
                        <rect id="Rectangle-12" fill="url(#linearGradient-1)" transform="translate(402.227241, 114.378820) rotate(-330.000000) translate(-402.227241, -114.378820) " x="392.727241" y="72.3788198" width="19" height="84" rx="9.5"></rect>
                        <rect id="Rectangle-12-Copy-7" fill="url(#linearGradient-1)" transform="translate(205.227241, 306.658965) rotate(-330.000000) translate(-205.227241, -306.658965) " x="195.727241" y="268.658965" width="19" height="76" rx="9.5"></rect>
                        <rect id="Rectangle-12-Copy-2" fill="url(#linearGradient-1)" transform="translate(115.277160, 115.706479) rotate(-330.000000) translate(-115.277160, -115.706479) " x="105.77716" y="78.8063155" width="19" height="73.8003268" rx="9.5"></rect>
                        <rect id="Rectangle-12-Copy-9" fill="url(#linearGradient-1)" transform="translate(545.227241, 108.070508) rotate(-330.000000) translate(-545.227241, -108.070508) " x="535.727241" y="88.0705081" width="19" height="40" rx="9.5"></rect>
                        <rect id="Rectangle-12-Copy-5" fill="url(#linearGradient-1)" transform="translate(114.227241, 28.998711) rotate(-330.000000) translate(-114.227241, -28.998711) " x="104.727241" y="0.998711306" width="19" height="56" rx="9.5"></rect>
                        <rect id="Rectangle-12-Copy-3" fill="url(#linearGradient-1)" transform="translate(194.955679, 127.507895) rotate(-330.000000) translate(-194.955679, -127.507895) " x="183.459851" y="47.5078954" width="22.9916569" height="160" rx="11.4958285"></rect>
                        <rect id="Rectangle-12-Copy" fill="url(#linearGradient-2)" transform="translate(513.191343, 90.826261) rotate(-330.000000) translate(-513.191343, -90.826261) " x="499.691343" y="1.82626094" width="27" height="178" rx="13.5"></rect>
                        <rect id="Rectangle-12-Copy-4" fill="url(#linearGradient-2)" transform="translate(260.569676, 78.076413) rotate(-330.000000) translate(-260.569676, -78.076413) " x="250.814867" y="20.1115911" width="19.5096189" height="115.929644" rx="9.75480947"></rect>
                        <rect id="Rectangle-12-Copy-8" fill="url(#linearGradient-2)" transform="translate(384.447913, 305.662014) rotate(-330.000000) translate(-384.447913, -305.662014) " x="374.693103" y="281.662014" width="19.5096189" height="48" rx="9.75480947"></rect>
                        <circle id="Oval-4" fill="url(#linearGradient-3)" cx="204.5" cy="398.5" r="14.5"></circle>
                        <circle id="Oval-4-Copy-7" fill="url(#linearGradient-3)" cx="569" cy="261" r="23"></circle>
                        <circle id="Oval-4-Copy" fill="url(#linearGradient-3)" cx="25" cy="155" r="22"></circle>
                        <circle id="Oval-4-Copy-9" fill="url(#linearGradient-3)" cx="440" cy="308" r="28"></circle>
                        <circle id="Oval-4-Copy-6" fill="url(#linearGradient-3)" cx="221" cy="140" r="16"></circle>
                        <circle id="Oval-4-Copy-12" fill="url(#linearGradient-2)" cx="17" cy="59" r="12"></circle>
                        <circle id="Oval-4-Copy-2" fill="url(#linearGradient-2)" cx="364" cy="152" r="26"></circle>
                        <circle id="Oval-4-Copy-8" fill="url(#linearGradient-2)" cx="91" cy="310" r="26"></circle>
                        <circle id="Oval-4-Copy-3" fill="url(#linearGradient-4)" cx="58" cy="118" r="32"></circle>
                        <circle id="Oval-4-Copy-5" fill="url(#linearGradient-4)" cx="497" cy="43" r="15"></circle>
                        <circle id="Oval-4-Copy-10" fill="url(#linearGradient-4)" cx="129.5" cy="308.5" r="14.5"></circle>
                        <circle id="Oval-4-Copy-11" fill="url(#linearGradient-4)" cx="17" cy="269" r="17"></circle>
                        <circle id="Oval-4-Copy-4" fill="url(#linearGradient-4)" cx="555" cy="198" r="34"></circle>
                    </g>
                </g>
            </g>
        </g>
    </g>
</svg>