<?xml version="1.0" encoding="UTF-8"?>
<svg width="691px" height="161px" viewBox="0 0 691 161" version="1.1" xmlns="http://www.w3.org/2000/svg" xmlns:xlink="http://www.w3.org/1999/xlink">
    <!-- Generator: Sketch 51.3 (57544) - http://www.bohemiancoding.com/sketch -->
    <title>Group 2 Copy 3</title>
    <desc>Created with Sketch.</desc>
    <defs></defs>
    <g id="Page-1" stroke="none" stroke-width="1" fill="none" fill-rule="evenodd">
        <g id="切图" transform="translate(-30.000000, -657.000000)">
            <g id="Group-10" transform="translate(30.000000, 657.000000)">
                <g id="Group-2-Copy-3">
                    <path d="M533.261447,26.3294453 L527.951738,18.535536 L533.261219,10.7603854 L527.951649,2.98510455 L529.646229,0.5 L8.80526641,0.5 C4.22231469,0.5 0.5,4.37506197 0.5,9.16659548 L0.5,151.133667 C0.5,155.924009 4.22294212,159.800263 8.80526641,159.800263 L528.712179,159.800263 L527.952598,158.677906 L533.261674,150.884925 L527.951965,143.091016 L533.261447,135.29744 L527.951738,127.521956 L533.261447,119.728047 L527.951511,111.952229 L533.261447,104.176412 L527.951738,96.3825026 L533.261447,88.6070186 L527.951738,80.8131093 L533.261447,73.0376253 L527.951738,65.243716 L533.261447,57.468232 L527.951738,49.6743227 L533.261447,41.8988387 L527.951738,34.1049294 L533.261447,26.3294453 Z" id="Fill-1" stroke="#34B0F3"></path>
                    <path d="M690.239202,9.14942529 L690.239202,150.852414 C690.239202,155.904368 686.288721,160 681.417999,160 L529.099326,160 L528,158.383448 L533.319318,150.602299 L528,142.824828 L533.319318,135.043678 L528,127.282759 L533.319318,119.505287 L528,111.742529 L533.319318,103.981609 L528,96.2022989 L533.319318,88.4413793 L528,80.663908 L533.319318,72.9011494 L528,65.1236782 L533.319318,57.3627586 L528,49.5816092 L533.319318,41.8225287 L528,34.0413793 L533.319318,26.2804598 L528,18.5011494 L533.319318,10.7402299 L528,2.98114943 L530.039072,0 L681.417999,0 C686.288721,0 690.239202,4.09747126 690.239202,9.14942529" id="Fill-4" fill="#34B0F3"></path>
                </g>
            </g>
        </g>
    </g>
</svg>