<?xml version="1.0" encoding="UTF-8"?>
<svg width="30px" height="30px" viewBox="0 0 30 30" version="1.1" xmlns="http://www.w3.org/2000/svg" xmlns:xlink="http://www.w3.org/1999/xlink">
    <!-- Generator: Sketch 51.3 (57544) - http://www.bohemiancoding.com/sketch -->
    <title>Group 6</title>
    <desc>Created with Sketch.</desc>
    <defs></defs>
    <g id="Page-1" stroke="none" stroke-width="1" fill="none" fill-rule="evenodd">
        <g id="切图" transform="translate(-387.000000, -69.000000)" fill="#333333" fill-rule="nonzero">
            <g id="Group-18" transform="translate(374.000000, 56.000000)">
                <g id="Group-6" transform="translate(28.000000, 27.500000) rotate(-315.000000) translate(-28.000000, -27.500000) translate(9.000000, 8.000000)">
                    <path d="M0,20.6742424 C-0.55228475,20.6742424 -1,20.2265272 -1,19.6742424 C-1,19.1219577 -0.55228475,18.6742424 0,18.6742424 L37.9797493,18.6742424 C38.532034,18.6742424 38.9797493,19.1219577 38.9797493,19.6742424 C38.9797493,20.2265272 38.532034,20.6742424 37.9797493,20.6742424 L0,20.6742424 Z" id="Path-5"></path>
                    <path d="M0,20.6742424 C-0.55228475,20.6742424 -1,20.2265272 -1,19.6742424 C-1,19.1219577 -0.55228475,18.6742424 0,18.6742424 L37.9797493,18.6742424 C38.532034,18.6742424 38.9797493,19.1219577 38.9797493,19.6742424 C38.9797493,20.2265272 38.532034,20.6742424 37.9797493,20.6742424 L0,20.6742424 Z" id="Path-5" transform="translate(18.989875, 19.674242) rotate(90.000000) translate(-18.989875, -19.674242) "></path>
                </g>
            </g>
        </g>
    </g>
</svg>