<?xml version="1.0" encoding="UTF-8"?>
<svg width="42px" height="38px" viewBox="0 0 42 38" version="1.1" xmlns="http://www.w3.org/2000/svg" xmlns:xlink="http://www.w3.org/1999/xlink">
    <!-- Generator: Sketch 51.3 (57544) - http://www.bohemiancoding.com/sketch -->
    <title>Group</title>
    <desc>Created with Sketch.</desc>
    <defs></defs>
    <g id="Page-1" stroke="none" stroke-width="1" fill="none" fill-rule="evenodd">
        <g id="切图" transform="translate(-482.000000, -61.000000)" fill="#333333" fill-rule="nonzero">
            <g id="Group-17" transform="translate(483.000000, 62.000000)">
                <g id="Group">
                    <path d="M18.6666667,-1.11022302e-16 C18.6666667,-0.55228475 19.1143819,-1 19.6666667,-1 C20.2189514,-1 20.6666667,-0.55228475 20.6666667,-1.11022302e-16 L20.6666667,24.9181311 C20.6666667,25.4704158 20.2189514,25.9181311 19.6666667,25.9181311 C19.1143819,25.9181311 18.6666667,25.4704158 18.6666667,24.9181311 L18.6666667,-1.11022302e-16 Z" id="Path-6"></path>
                    <path d="M26,9 C26,8.44771525 26.4477153,8 27,8 C27.5522847,8 28,8.44771525 28,9 L28,23 C28,23.5522847 27.5522847,24 27,24 L13,24 C12.4477153,24 12,23.5522847 12,23 C12,22.4477153 12.4477153,22 13,22 L26,22 L26,9 Z" id="Rectangle-13" transform="translate(20.000000, 16.000000) rotate(-315.000000) translate(-20.000000, -16.000000) "></path>
                    <path d="M39,16 C39,15.4477153 39.4477153,15 40,15 C40.5522847,15 41,15.4477153 41,16 L41,31 C41,34.3137085 38.3137085,37 35,37 L5,37 C1.6862915,37 -1,34.3137085 -1,31 L-1,16 C-1,15.4477153 -0.55228475,15 0,15 C0.55228475,15 1,15.4477153 1,16 L1,31 C1,33.209139 2.790861,35 5,35 L35,35 C37.209139,35 39,33.209139 39,31 L39,16 Z" id="Rectangle-14"></path>
                </g>
            </g>
        </g>
    </g>
</svg>