<?xml version="1.0" encoding="UTF-8"?>
<svg width="108px" height="118px" viewBox="0 0 108 118" version="1.1" xmlns="http://www.w3.org/2000/svg" xmlns:xlink="http://www.w3.org/1999/xlink">
    <!-- Generator: Sketch 51.3 (57544) - http://www.bohemiancoding.com/sketch -->
    <title>Group 4 Copy</title>
    <desc>Created with Sketch.</desc>
    <defs>
        <path d="M38.9053126,85.807576 C17.0777074,83.745636 0,65.3671742 0,43 C0,19.2517558 19.2517558,0 43,0 C66.7482442,0 86,19.2517558 86,43 C86,64.086842 70.8214454,81.6285426 50.7940239,85.2954141 L45.1519507,97.0226787 L38.9053126,85.807576 Z" id="path-1"></path>
        <filter x="-19.8%" y="-17.5%" width="139.5%" height="135.0%" filterUnits="objectBoundingBox" id="filter-2">
            <feMorphology radius="0.5" operator="dilate" in="SourceAlpha" result="shadowSpreadOuter1"></feMorphology>
            <feOffset dx="0" dy="0" in="shadowSpreadOuter1" result="shadowOffsetOuter1"></feOffset>
            <feGaussianBlur stdDeviation="5.5" in="shadowOffsetOuter1" result="shadowBlurOuter1"></feGaussianBlur>
            <feComposite in="shadowBlurOuter1" in2="SourceAlpha" operator="out" result="shadowBlurOuter1"></feComposite>
            <feColorMatrix values="0 0 0 0 1   0 0 0 0 0.360784314   0 0 0 0 0.231372549  0 0 0 0.8 0" type="matrix" in="shadowBlurOuter1"></feColorMatrix>
        </filter>
    </defs>
    <g id="Page-1" stroke="none" stroke-width="1" fill="none" fill-rule="evenodd">
        <g id="切图" transform="translate(-303.000000, -150.000000)">
            <g id="Group-13" transform="translate(314.000000, 161.000000)">
                <g id="Group-4-Copy">
                    <g id="Combined-Shape">
                        <use fill="black" fill-opacity="1" filter="url(#filter-2)" xlink:href="#path-1"></use>
                        <use stroke-opacity="0.498697917" stroke="#FF5C3B" stroke-width="1" fill="#FF5C3B" fill-rule="evenodd" xlink:href="#path-1"></use>
                    </g>
                    <g id="快餐-(1)" transform="translate(15.000000, 13.000000)" fill="#FFFFFF" fill-rule="nonzero">
                        <path d="M37.9217647,3.34384858 L37.9217647,0 L25.5829412,0 C22.2635294,0 20.8888235,7.02208202 20.52,9.29589905 L0.972352941,9.29589905 L3.35294118,47.081388 L25.9517647,47.081388 L28.3994118,9.29589905 L23.9064706,9.29589905 C24.0405882,5.85173502 25.5829412,3.34384858 25.5829412,3.34384858 L37.9217647,3.34384858 Z M17.5023529,19.6618297 L4.15764706,19.6618297 L3.82235294,11.5697161 L20.0170588,11.5697161 L17.5023529,19.6618297 Z M25.2811765,19.6618297 L20.7882353,19.6618297 L23.1688235,11.5697161 L25.6164706,11.5697161 L25.2811765,19.6618297 Z M48.7517647,23.6410095 L34.1329412,23.6410095 C30.9811765,23.6410095 28.3994118,26.2157729 28.3994118,29.3589905 L28.3994118,29.8271293 L54.4852941,29.8271293 L54.4852941,29.3589905 C54.4852941,26.1823344 51.9035294,23.6410095 48.7517647,23.6410095 Z M28.3994118,41.9652997 C28.3994118,45.1085174 30.9811765,47.6832808 34.1329412,47.6832808 L48.7517647,47.6832808 C51.9035294,47.6832808 54.4852941,45.1085174 54.4852941,41.9652997 L54.4852941,40.0258675 L28.3994118,40.0258675 L28.3994118,41.9652997 Z M51.0652941,31.4321767 C50.0929412,31.4321767 49.1876471,31.866877 48.5505882,32.5356467 C47.2764706,31.1646688 45.1305882,31.0643533 43.7558824,32.3350158 C43.1188235,31.7665615 42.2805882,31.4321767 41.4423529,31.4321767 C40.4364706,31.4321767 39.5311765,31.866877 38.9276471,32.5356467 C38.2905882,31.8334385 37.3517647,31.4321767 36.4129412,31.4321767 C35.4405882,31.4321767 34.5352941,31.8334385 33.8647059,32.5690852 C32.5905882,31.1646688 30.4447059,31.0643533 29.07,32.3015773 C27.6617647,33.5722397 27.5611765,35.7123028 28.8017647,37.0832808 C29.4388235,37.785489 30.3776471,38.2201893 31.3164706,38.2201893 C32.3223529,38.2201893 33.2276471,37.785489 33.8647059,37.1167192 C34.4682353,37.785489 35.3735294,38.2201893 36.3794118,38.2201893 C37.3852941,38.2201893 38.2905882,37.785489 38.8941176,37.1167192 C39.5311765,37.8189274 40.4364706,38.2201893 41.4088235,38.2201893 C42.3141176,38.2201893 43.1188235,37.8858044 43.7223529,37.3173502 C45.0970588,38.5880126 47.2429412,38.5211356 48.5170588,37.1501577 L48.5505882,37.1167192 C49.8247059,38.4876972 51.9705882,38.5880126 53.3788235,37.3173502 C54.0829412,36.6820189 54.4852941,35.7791798 54.4852941,34.8094637 C54.4852941,32.970347 52.9764706,31.4656151 51.0652941,31.4321767 C51.0988235,31.4321767 51.0652941,31.4321767 51.0652941,31.4321767 Z M0,49.2883281 C0.670588235,51.4618297 2.61529412,53 4.96235294,53 L52.0376471,53 C54.3511765,53 56.3294118,51.4283912 57,49.2883281 L0,49.2883281 Z" id="Shape"></path>
                    </g>
                </g>
            </g>
        </g>
    </g>
</svg>