<?xml version="1.0" encoding="UTF-8"?>
<svg width="34px" height="34px" viewBox="0 0 34 34" version="1.1" xmlns="http://www.w3.org/2000/svg" xmlns:xlink="http://www.w3.org/1999/xlink">
    <!-- Generator: Sketch 51.3 (57544) - http://www.bohemiancoding.com/sketch -->
    <title>Shape</title>
    <desc>Created with Sketch.</desc>
    <defs></defs>
    <g id="Page-1" stroke="none" stroke-width="1" fill="none" fill-rule="evenodd">
        <g id="切图" transform="translate(-281.000000, -64.000000)" fill="#FF5C3B" fill-rule="nonzero">
            <g id="Group-16" transform="translate(281.000000, 64.000000)">
                <path d="M24.9333561,33.8551018 C15.3673171,31.927175 2.4761769,18.9264114 0.190932782,9.08830334 C-0.391346397,6.55700496 0.378018411,3.9058841 2.22559748,2.07443405 L3.06286446,1.24392089 C3.9211678,0.384233459 5.10897311,-0.0659078841 6.3233643,0.00782053699 C7.5379355,0.0815598866 8.66229659,0.672237301 9.39952045,1.61714344 L11.8595073,4.66720097 C11.999811,4.84522303 12.1449569,5.01941643 12.2913174,5.18567119 C13.6433218,6.70515927 13.5778586,9.0098681 12.119724,10.4723509 L10.3971219,12.0964164 C10.0353433,12.4568004 9.9708557,13.0159964 10.2420873,13.4500286 C12.1419307,16.5074528 17.3161732,21.6363792 20.5328343,23.6102199 C20.9691961,23.8764088 21.5329007,23.8092789 21.90392,23.4382137 L23.4849433,21.9031691 C24.8989864,20.5055727 27.1472155,20.4075918 28.6889457,21.6855223 C28.8602923,21.8315998 29.0353229,21.9733468 29.2058754,22.1045445 L32.648868,24.6971701 L32.7544377,24.788909 C34.4151874,26.449674 34.4151874,29.1358672 32.7517571,30.7993027 L31.7546937,31.7888584 C29.9721514,33.5702121 27.4133826,34.3457639 24.9333561,33.8551018 Z M27.9948002,23.6961462 C27.7895718,23.5383507 27.5883802,23.3754174 27.4020541,23.2164426 C26.6622261,22.603264 25.5737315,22.6507021 24.8845121,23.3318497 L23.3078325,24.8625747 C22.2944814,25.8764865 20.7156649,26.0645031 19.4890517,25.3162418 C16.0059888,23.1789333 10.6079086,17.8281296 8.54468384,14.5077691 C7.78032113,13.2846324 7.96331021,11.6978654 9.00527696,10.6604428 L10.7252961,9.03895979 C11.4144566,8.34742258 11.4457947,7.24412867 10.7936907,6.51122279 C10.6198764,6.31380707 10.4514879,6.11171956 10.2957398,5.91399844 L7.83279409,2.86016813 C7.43877668,2.35526476 6.84466772,2.04315263 6.20216297,2.00414472 C5.55947821,1.96512588 4.93129196,2.20318897 4.47478527,2.6604152 L3.63384212,3.49459141 C2.27729557,4.83929562 1.71302847,6.78367918 2.13954785,8.63786496 C4.25017853,17.7242427 16.5458593,30.1244833 25.3250034,31.8938268 C27.1481143,32.2545164 29.0314666,31.6834487 30.341948,30.3731776 L31.3402176,29.3824252 C32.2048321,28.5178027 32.2196684,27.1314034 31.3847265,26.2488741 L27.9948002,23.6961462 Z" id="Shape"></path>
            </g>
        </g>
    </g>
</svg>