<?xml version="1.0" encoding="UTF-8"?>
<svg width="30px" height="30px" viewBox="0 0 30 30" version="1.1" xmlns="http://www.w3.org/2000/svg" xmlns:xlink="http://www.w3.org/1999/xlink">
    <!-- Generator: Sketch 51.3 (57544) - http://www.bohemiancoding.com/sketch -->
    <title>Group 4</title>
    <desc>Created with Sketch.</desc>
    <defs></defs>
    <g id="Page-1" stroke="none" stroke-width="1" fill="none" fill-rule="evenodd">
        <g id="切图" transform="translate(-176.000000, -71.000000)" fill="#999999" fill-rule="nonzero">
            <g id="Group" transform="translate(177.000000, 72.000000)">
                <g id="Group-4" transform="translate(-1.000000, -1.000000)">
                    <path d="M12.8461538,25.6923077 C5.75141898,25.6923077 0,19.9408887 0,12.8461538 C0,5.75141898 5.75141898,0 12.8461538,0 C19.9408887,0 25.6923077,5.75141898 25.6923077,12.8461538 C25.6923077,19.9408887 19.9408887,25.6923077 12.8461538,25.6923077 Z M12.8461538,23.6923077 C18.8363192,23.6923077 23.6923077,18.8363192 23.6923077,12.8461538 C23.6923077,6.85598848 18.8363192,2 12.8461538,2 C6.85598848,2 2,6.85598848 2,12.8461538 C2,18.8363192 6.85598848,23.6923077 12.8461538,23.6923077 Z" id="Oval"></path>
                    <path d="M20.7544317,22.1686452 C20.3639074,21.778121 20.3639074,21.144956 20.7544317,20.7544317 C21.144956,20.3639074 21.778121,20.3639074 22.1686452,20.7544317 L29.7071068,28.2928932 C30.0976311,28.6834175 30.0976311,29.3165825 29.7071068,29.7071068 C29.3165825,30.0976311 28.6834175,30.0976311 28.2928932,29.7071068 L20.7544317,22.1686452 Z" id="Path-3"></path>
                </g>
            </g>
        </g>
    </g>
</svg>