<?xml version="1.0" encoding="utf-8"?>
<!-- Generator: Adobe Illustrator 16.0.0, SVG Export Plug-In . SVG Version: 6.00 Build 0)  -->
<!DOCTYPE svg PUBLIC "-//W3C//DTD SVG 1.1//EN" "http://www.w3.org/Graphics/SVG/1.1/DTD/svg11.dtd">
<svg version="1.1" id="background" xmlns="http://www.w3.org/2000/svg" xmlns:xlink="http://www.w3.org/1999/xlink" x="0px" y="0px"
	 width="108px" height="136px" viewBox="0 0 107.659 136" enable-background="new 0 0 107.659 136" xml:space="preserve">
<path fill-rule="evenodd" clip-rule="evenodd" d="M79.609,130.858c0.418-0.354,0.834-0.771,1.089-1.247
	c0.44-0.822,0.738-1.719,1.126-2.57c0.275-0.603,0.388-1.22,0.067-1.801c-0.396-0.716-0.25-1.443-0.25-2.189
	c0-0.779,0.331-1.322,0.941-1.712c0.84-0.534,1.722-1.005,2.559-1.545c0.625-0.403,1.306-0.784,1.788-1.329
	c1.776-2.01,3.508-4.063,4.889-6.375c1.145-1.919,1.653-3.961,0.644-6.069c-0.725-1.514-1.65-2.935-2.512-4.379
	c-0.188-0.313-0.473-0.582-0.749-0.831c-0.831-0.755-1.687-1.48-2.52-2.232c-1.349-1.216-2.727-2.386-4.386-3.176
	c-0.213-0.101-0.386-0.286-0.658-0.493c0.398-0.734,0.903-0.96,1.493-0.931c0.978,0.049,2.002-0.269,2.912,0.378
	c0.661,0.47,1.296,1.039,2.036,1.324c1.731,0.669,3.6,0.91,5.342,1.571c1.175-0.193,1.875,0.469,2.443,1.362
	c0.369,0.579,0.754,1.146,1.097,1.74c0.373,0.648,0.7,1.325,1.057,1.982c0.233,0.43,0.619,0.612,1.093,0.563
	c0.309-0.032,0.617-0.1,0.913-0.193c0.49-0.155,0.73-0.529,0.603-1.003c-0.162-0.602-0.41-1.182-0.579-1.78
	c-0.168-0.597-0.386-1.203-0.406-1.812c-0.059-1.897-0.726-3.527-1.941-4.958c-0.242-0.286-0.492-0.573-0.679-0.896
	c-0.841-1.447-2.111-2.239-3.722-2.589c-0.524-0.114-1.143-0.134-1.478-0.774c0-0.321,0.05-0.701-0.015-1.06
	c-0.063-0.352-0.167-0.748-0.388-1.012c-1.362-1.628-2.756-3.229-4.156-4.823c-0.243-0.277-0.536-0.551-0.863-0.707
	c-0.863-0.411-1.233-1.173-1.631-1.969c-0.527-1.058-1.113-2.089-1.74-3.09c-0.627-1.004-1.32-1.969-2.018-2.925
	c-0.35-0.479-0.562-0.963-0.427-1.563c0.239-1.065-0.085-1.996-0.788-2.772c-0.601-0.664-0.594-1.31-0.214-2.056
	c0.434-0.852,0.557-1.767,0.542-2.726c-0.017-0.929,0.081-1.86,0.139-2.789c0.046-0.746,0.189-1.495,0.146-2.234
	c-0.104-1.74-0.28-3.479-0.456-5.216c-0.114-1.117-0.289-2.228-0.415-3.344c-0.079-0.7,0.061-1.328,0.482-1.944
	c0.416-0.609,0.688-1.32,0.987-2.003c0.434-0.991,0.998-1.517,2.001-1.254c1.138,0.297,2.079-0.094,3.096-0.346
	c1.117-0.275,1.758-0.986,2.335-1.969c1.057-1.797,2.051-3.565,1.895-5.743c0.466-1.459,0.373-2.967,0.359-4.463
	c-0.011-1.312-0.049-2.622-0.105-3.932c-0.019-0.432-0.096-0.867-0.208-1.284c-0.406-1.506-0.832-3.007-1.262-4.506
	c-0.411-1.433-0.647-2.919-1.406-4.244c-0.206-0.362-0.174-0.853-0.303-1.268c-0.125-0.409-0.234-0.862-0.492-1.181
	c-0.445-0.548-0.73-1.141-0.946-1.804c-0.357-1.097-0.995-2.015-1.984-2.647c-1.575-1.01-3.165-1.995-4.729-3.023
	c-0.757-0.498-1.595-0.712-2.464-0.812c-1.858-0.211-3.721-0.397-5.586-0.557c-0.869-0.073-1.758,0.027-2.618-0.099
	c-2.468-0.361-4.521,0.533-6.421,1.967c-1.41,1.062-2.507,2.428-3.656,3.745c-0.615,0.705-1.915,1.352-1.915,2.053
	c0,0-4.545,11.281-4.121,15.194c0.057,0.527,0.683,1.311,0.378,2.087c-0.046,0.115-0.061,0.247-0.122,0.354
	c-0.969,1.685-0.541,3.369,0.083,5.006c0.297,0.784,0.559,1.518,0.293,2.344c-0.292,0.908-0.736,1.725-1.533,2.289
	c-0.943,0.668-1.624,1.497-2.007,2.618c-0.262,0.766-1.46,1.827-1.46,1.827l-6.327,6.753c0,1.312-2.173,2.743-3.164,4.18
	c-0.928,1.345-1.946,2.592-3.102,3.743c-0.883,0.88-1.703,1.826-2.53,2.762c-0.653,0.74-0.928,1.579-0.71,2.596
	c0.299,1.4,0.449,2.834,0.785,4.225c0.201,0.839,0.173,1.567-0.17,2.356c-0.515,1.182-0.737,2.511-1.884,3.34
	c-0.137,0.099-0.185,0.32-0.277,0.483c-0.832,1.473-1.789,2.846-3.099,3.944c-0.236,0.198-0.503,0.43-0.609,0.702
	c-0.532,1.385-1.621,2.353-2.503,3.477c-1.513,1.926-1.635,3.787-0.424,5.892c0.796,1.381,0.744,1.953-0.304,3.174
	c-0.199,0.231-0.432,0.434-0.585,0.585c-0.068,0.856-0.126,1.592-0.183,2.306c-0.311,0.154-0.523,0.302-0.755,0.366
	c-1.151,0.316-2.31,0.489-3.507,0.244c-0.794-0.164-1.527,0.061-1.985,0.734c-0.523,0.771-1.158,1.567-1.352,2.439
	c-0.29,1.31-1.028,1.909-2.217,2.184c-0.18,0.042-0.347,0.141-0.521,0.211c-1.771,0.724-2.192,2.172-1.641,3.633
	c0.238,0.632,0.453,1.271,0.682,1.914c-0.197,0.158-0.32,0.322-0.48,0.374c-1.565,0.513-2.187,1.958-3.106,3.106
	c-0.451,1.735-1.268,3.401-0.948,5.279c0.051,0.299,0.055,0.639-0.035,0.923c-0.66,2.118-0.54,4.329-0.787,6.493
	c-0.133,1.162-0.037,2.374,0.121,3.541c0.231,1.698,0.88,2.279,2.539,2.439c0.993,0.095,1.997,0.075,2.993,0.127
	c0.846,0.045,1.597-0.18,2.288-0.669c2.997-2.121,6.511-2.778,10.002-3.482c0.475-0.097,0.993-0.017,1.487,0.026
	c3.48,0.297,6.954,0.663,10.438,0.897c4.427,0.297,8.812,0.912,13.202,1.512c2.595,0.354,5.17,0.87,7.805,0.931
	c1.369,0.03,2.772,0.061,4.094,0.374c2.397,0.567,4.708,0.265,7.036-0.266c0.244-0.055,0.489-0.105,0.736-0.146
	c1.002-0.162,1.96-0.109,2.937,0.276c1.381,0.543,2.739,1.557,4.313,1.45C77.262,132.385,79.609,130.858,79.609,130.858z
	 M76.216,89.635c-0.068-0.476-0.145-1.006-0.22-1.524c-1.428-1.084-2.972-1.817-4.769-2.138c-0.015-0.3-0.089-0.549-0.024-0.757
	c0.164-0.522,0.194-0.513,1.151-1.3c0.303,0.228,0.645,0.458,0.957,0.724c1.033,0.886,2.008,1.847,3.096,2.656
	c0.914,0.68,1.384,1.516,1.528,2.721C77.321,90.084,76.818,89.899,76.216,89.635z"/>
<g>
	<!--<path d="M48.562,31.343c-0.518-1.412-0.861-2.857-1.071-4.349c-0.1-0.708-0.037-1.378,0.177-2.024
		c0.64-1.938,1.749-3.574,3.319-4.886c0.499-0.416,1.035-0.635,1.725-0.414c0.563,0.18,1.171,0.228,1.896,0.358
		c-0.166,0.426-0.225,0.804-0.431,1.066c-0.458,0.589-1.168,0.999-1.493,1.672c-0.608,1.26,0.575,5.528,0.575,5.528l3.873-13.77
		c-0.494,0.541-1.042,0.765-1.817,0.72c-1.05-0.06-2.152-0.069-3.16,0.184c-1.187,0.298-2.314,0.278-3.511,0.201
		c-1.36-0.089-2.744,0.072-4.016,0.933c0.063,0.926-0.333,1.621-1.198,2.071c-0.38,0.198-0.728,0.498-1.019,0.819
		c-0.626,0.688-1.362,1.343-1.776,2.152c-0.971,1.895-1.559,3.942-1.951,6.04c-0.046,0.244-0.103,0.515-0.042,0.743
		c0.337,1.241,0.046,2.475,0.005,3.711c-0.071,2.129-0.02,4.237,0.76,6.275c0.263,0.688,0.4,1.458,0.429,2.197
		c0.083,2.119,0.19,4.251-0.811,6.24c-0.25,0.499-0.386,1.055-0.57,1.586c-0.583,1.687-0.677,3.423-0.488,5.18
		c0.037,0.338,0.229,0.659,0.366,1.032c0.609-0.45,0.716-0.981,0.687-1.556c-0.021-0.438-0.104-0.872-0.1-1.307
		c0.01-1.102,0.009-2.211,0.716-3.334c0.396,1.104,0.22,2.258,1.167,3.211c-0.077-0.791-0.164-1.392-0.186-1.995
		c-0.017-0.485,0.425-0.801,0.9-0.646c0.283,0.094,0.604,0.232,0.785,0.452c0.475,0.576,0.637,2.44,0.683,1.818
		c0.415-5.59,6.55-12.537,6.595-17.124C49.592,33.14,48.902,32.271,48.562,31.343z"/>-->
</g>
</svg>
