<?xml version="1.0" encoding="utf-8"?>
<!-- Generator: Adobe Illustrator 16.0.0, SVG Export Plug-In . SVG Version: 6.00 Build 0)  -->
<!DOCTYPE svg PUBLIC "-//W3C//DTD SVG 1.1//EN" "http://www.w3.org/Graphics/SVG/1.1/DTD/svg11.dtd">
<svg version="1.1" id="Layer_1" xmlns="http://www.w3.org/2000/svg" xmlns:xlink="http://www.w3.org/1999/xlink" x="0px" y="0px"
	 width="130px" height="150px">
<path fill="#010101" d="M119.188,12.415l-12.73,7.239c-0.4,0.228-0.932,0.047-1.188-0.403l-0.104-0.182
	c-11.628,6.022-23.336,11.726-35.57,18.58c1.965,2.512,4.449,5.53,7.654,9.113c0.908,3.793,2.435,5.509,4.577,6.612
	C96.375,86.69,112.091,118.396,128.773,150h-5.807c-1.454-3.836-2.54-6.625-5.273-12.477c-6.403-13.899-14.58-28.119-21.61-43.239
	c-3.462-6.822-12.436-26.551-16.877-38.29c-0.142-1.023-1.594-0.737-2.621-0.873c0.723,4.509-0.416,7.155-3.494,7.862
	c-1.559,7.137-2.621,13.321-5.243,26.209c-3.341,20.884-7.408,39.966-10.202,60.808h-5.322c0.366-3.005,1.063-5.683,2.461-13.163
	C59.595,113.895,65,83.847,70.469,58.615l-37.567,77.753c-1.815,4.836-3.983,9.32-6.323,13.632h-4.847
	c16.259-31.968,30.996-68.808,49.61-100.121c-3.322-3.929-4.839-5.429-8.715-9.25c-5.46,3.385-29.495,14.677-29.474,15.058
	c0.1,1.801-0.551,3.285-1.602,3.844c-1.298,0.689-2.883,0.48-4.166-0.915c-8.626,3.935-21.872,11.99-25.49,13.27
	c-0.424,0.062-2.044-2.862-1.885-3.558c2.465-1.962,19.773-10.708,24.156-13.206c3.62-2.063,4.216-5.054,6.989-6.116
	c3.31-1.167,4.133-3.387,2.977-5.348c0.709-0.41,1.334-0.911,1.825-1.088c0.914,1.021,1.919,1.876,4.808,0.321
	C60.063,31.23,79.806,20.474,99.363,8.864l-0.17-0.299c-0.256-0.45-0.139-0.999,0.261-1.227l12.73-7.239
	c0.4-0.228,0.933-0.048,1.188,0.403l6.076,10.686C119.706,11.638,119.588,12.188,119.188,12.415z"/>
</svg>
