<?xml version="1.0" standalone="no"?>
<!DOCTYPE svg PUBLIC "-//W3C//DTD SVG 1.1//EN" "http://www.w3.org/Graphics/SVG/1.1/DTD/svg11.dtd" >
<!--
2013-9-30: Created.
-->
<svg>
<metadata>
Created by iconfont
</metadata>
<defs>

<font id="iconfont" horiz-adv-x="1024" >
  <font-face
    font-family="iconfont"
    font-weight="500"
    font-stretch="normal"
    units-per-em="1024"
    ascent="896"
    descent="-128"
  />
    <missing-glyph />
    
    <glyph glyph-name="close" unicode="&#59011;" d="M512.82 456.93L874.15 818.27c18.31 18.31 47.99 18.31 66.31 0l6.63-6.63c18.31-18.31 18.31-47.99 0-66.3L585.74 384l361.34-361.34c18.31-18.31 18.31-47.99 0-66.3l-6.63-6.63c-18.31-18.31-47.99-18.31-66.31 0L512.82 311.07 151.48-50.27c-18.31-18.31-47.99-18.31-66.3 0l-6.63 6.63c-18.31 18.31-18.31 47.99 0 66.3L439.88 384 78.55 745.34c-18.31 18.31-18.31 47.99 0 66.3l6.63 6.63c18.31 18.31 47.99 18.31 66.3 0l361.34-361.34z"  horiz-adv-x="1024" />

    
    <glyph glyph-name="delete" unicode="&#59012;" d="M821.52 766.65H718.4l-75.33 53.71C632.47 827.78 619.01 832 605.25 832H419.64c-14.04 0-27.79-4.22-38.39-11.65l-75.33-53.71H202.8c-50.41 0-85.93-19.56-85.93-60.66h790.59c-0.01 41.11-35.52 60.67-85.94 60.67zM687.75 64.34h-53.28L653.95 608h53l-19.2-543.66z m-149.81 0h-51.55V608h51.55v-543.66z m-201.37 0L317.38 608h53l19.76-543.66h-53.57zM160.12 682.68l67.6-678.32c0-37.8 37.52-68.37 83.93-68.37h403.89c46.4 0 83.93 30.56 83.93 68.37l66.74 678.32H160.12z"  horiz-adv-x="1024" />

    
    <glyph glyph-name="close1" unicode="&#59013;" d="M512.98 384c-20.62 0-37.33 16.7-37.33 37.35v373.3c0 20.65 16.71 37.35 37.33 37.35 20.62 0 37.34-16.7 37.34-37.35v-373.31c0-20.64-16.72-37.34-37.34-37.34z m316.8 316.77a37.245 37.245 0 0 1-36.31 10.18c-13.05-3.42-23.25-13.6-26.67-26.63a37.358 37.358 0 0 1 10.18-36.33c145.57-145.56 145.57-382.39 0-527.99C631.42-25.56 394.57-25.56 249 120c-145.56 145.6-145.56 382.43 0 527.99 9.7 9.37 13.6 23.25 10.18 36.33a37.34 37.34 0 0 1-26.66 26.63 37.257 37.257 0 0 1-36.31-10.18c-174.96-174.96-174.96-458.63 0-633.55 174.97-174.97 458.63-174.97 633.58 0 174.95 174.96 174.94 458.59-0.01 633.55z"  horiz-adv-x="1024" />

    
    <glyph glyph-name="date" unicode="&#59014;" d="M702.28 221.85h108.61v-108.61H702.28V221.85z m0 162.91h108.61v-108.61H702.28V384.76zM485.07 221.85h108.61v-108.61H485.07V221.85z m0 162.91h108.61v-108.61H485.07V384.76zM267.86 221.85h108.61v-108.61H267.86V221.85z m0 162.91h108.61v-108.61H267.86V384.76z m352.97 378.6c0 22.48 18.24 40.73 40.73 40.73s40.73-18.25 40.73-40.73v-266.63c0-22.48-18.24-40.73-40.73-40.73s-40.73 18.25-40.73 40.73V763.36z m-312.24 0c0 22.48 18.23 40.73 40.73 40.73s40.73-18.25 40.73-40.73v-266.63c0-22.48-18.23-40.73-40.73-40.73s-40.73 18.25-40.73 40.73V763.36z m456.8-147.81c-22.49 0-40.73 18.25-40.73 40.73S742.9 697 765.39 697h110.07c46.69 0 84.76-37.58 84.76-84.17v-564.75c0-46.61-38.07-84.17-84.76-84.17H148.98c-46.69 0-84.76 37.56-84.76 84.17V612.83c0 46.59 38.07 84.17 84.76 84.17h110.07c22.5 0 40.73-18.25 40.73-40.73s-18.23-40.73-40.73-40.73H148.98c-1.94 0-3.3-1.36-3.3-2.71v-564.75c0-1.37 1.36-2.71 3.3-2.71h726.49c1.94 0 3.3 1.34 3.3 2.71V612.83c0 1.36-1.36 2.71-3.3 2.71H765.39z m-280.32 0c-22.49 0-40.73 18.25-40.73 40.73S462.58 697 485.07 697h54.3c22.49 0 40.73-18.25 40.73-40.73s-18.23-40.73-40.73-40.73h-54.3z"  horiz-adv-x="1024" />

    
    <glyph glyph-name="download" unicode="&#59015;" d="M780.83 554.89c-24.74 0-44.8 20.44-44.8 45.65s20.06 45.65 44.8 45.65c98.97 0 179.2-81.74 179.2-182.62V98.3c0-100.88-80.23-182.66-179.2-182.66h-537.6c-98.97 0-179.2 81.78-179.2 182.66V463.58c0 100.88 80.23 182.62 179.2 182.62 24.74 0 44.8-20.44 44.8-45.65s-20.06-45.65-44.8-45.65c-49.48 0-89.6-40.89-89.6-91.31V98.3c0-50.46 40.12-91.35 89.6-91.35h537.6c49.48 0 89.6 40.89 89.6 91.35V463.58c0 50.42-40.11 91.31-89.6 91.31z m-313.6-231.53V806.71c0 25.21 20.06 45.65 44.8 45.65s44.8-20.44 44.8-45.65v-499.03l118.09 120.35c17.5 17.84 45.86 17.84 63.36 0s17.5-46.72 0-64.56L551.4 172.99c-17.49-17.84-45.86-17.84-63.36 0L301.16 363.47c-17.5 17.84-17.5 46.71 0 64.56 17.5 17.84 45.86 17.84 63.36 0l102.71-104.67z"  horiz-adv-x="1024" />

    
    <glyph glyph-name="returnbtn" unicode="&#59016;" d="M394.95 384L748.2 737.25c21.7 21.68 21.7 56.82 0 78.5-21.65 21.68-56.84 21.68-78.48 0l-392.49-392.5c-21.7-21.68-21.7-56.82 0-78.5l392.49-392.49c21.65-21.68 56.83-21.68 78.48 0 21.7 21.68 21.7 56.81 0 78.5L394.95 384z"  horiz-adv-x="1024" />

    
    <glyph glyph-name="link" unicode="&#59017;" d="M817.68 315.91c-59.47 0-110.62-35.75-132.13-86.74l-275.28 26.9a167.235 167.235 0 0 1-24.39 68.24l117.44 145.98c20.79-11.57 44.79-18.2 70.34-18.2 78.78 0 142.99 62.72 142.99 140.53 0 77.84-64.2 140.56-142.99 140.56s-142.99-62.72-142.99-140.56c0-26.34 7.37-50.93 20.16-71.96l-116.02-144.2c-27.65 18.25-60.91 28.89-96.67 28.89-95.63 0-173.49-76.09-173.49-170.37s77.86-170.34 173.49-170.34c77.56 0 143.43 50.04 165.55 119.25l272.2-26.61c9.05-69.23 69.2-122.46 141.77-122.46 78.79 0 142.99 62.72 142.99 140.56 0.02 77.81-64.18 140.53-142.97 140.53z m-244 344.8c39.13 0 70.52-30.67 70.52-68.09 0-37.39-31.39-68.06-70.52-68.06-39.14 0-70.52 30.67-70.52 68.06 0 37.42 31.38 68.09 70.52 68.09z m-335.52-523.6c-55.98 0-101.02 44.01-101.02 97.87 0 53.86 45.04 97.9 101.02 97.9s101.02-44.04 101.02-97.9c0-53.87-45.04-97.87-101.02-97.87z m579.52-29.82c-39.13 0-70.52 30.67-70.52 68.09 0 37.39 31.38 68.06 70.52 68.06 39.13 0 70.52-30.67 70.52-68.06 0-37.42-31.38-68.09-70.52-68.09z"  horiz-adv-x="1024" />

    
    <glyph glyph-name="edit" unicode="&#59018;" d="M801.36 550.89L649.69 702.6l-446.9-446.95V104h151.66zM918.67 668.21c16.17 16.18 16.17 40.43 0 56.62l-95.05 95.03c-16.17 16.18-40.45 16.18-56.62 0l-74.83-74.82 151.67-151.65 74.83 74.82zM874.79 48H146.78c-30.93 0-56-25.07-56-56s25.07-56 56-56h728.01c30.93 0 56 25.07 56 56s-25.07 56-56 56z"  horiz-adv-x="1024" />

    
    <glyph glyph-name="mypro" unicode="&#59019;" d="M599.51 626.2c-29.22 0-57.23-10.93-78.86-30.78-21.42-19.66-34.79-46.35-37.67-75.18-0.51-2.25-0.77-4.56-0.77-6.87V300.3c0-1.1 0.07-2.25 0.19-3.41-0.01-0.3-0.02-0.59-0.02-0.89 0-30.85-25.07-55.95-55.89-55.95S370.6 265.15 370.6 296s25.07 55.95 55.89 55.95c16.88 0 30.62 13.87 30.62 30.93 0 17.05-13.74 30.93-30.62 30.93-64.58 0-117.13-52.85-117.13-117.81 0-64.96 52.54-117.81 117.13-117.81 64.58 0 117.13 52.85 117.13 117.81 0 1.11-0.06 2.23-0.19 3.41 0.01 0.3 0.02 0.59 0.02 0.89V505.12c0.12 1.11 0.18 2.2 0.18 3.27 0 30.85 25.07 55.95 55.89 55.95s55.89-25.1 55.89-55.95-25.07-55.95-55.89-55.95c-16.88 0-30.62-13.87-30.62-30.93 0-17.06 13.74-30.93 30.62-30.93 64.58 0 117.13 52.85 117.13 117.81-0.01 64.96-52.56 117.81-117.14 117.81z m326.28-69.98C949.15 500.98 961 442.31 961 381.83c0-60.47-11.85-119.14-35.21-174.38-22.56-53.35-54.87-101.26-96-142.4-41.14-41.14-89.05-73.44-142.4-96.01-55.24-23.37-113.91-35.21-174.39-35.21-60.47 0-119.14 11.85-174.39 35.21-53.35 22.56-101.26 54.87-142.4 96.01-41.14 41.14-73.44 89.05-96.01 142.4C76.85 262.69 65 321.36 65 381.83c0 60.48 11.85 119.15 35.21 174.39 22.56 53.35 54.86 101.26 96.01 142.4 41.14 41.14 89.05 73.44 142.4 96C393.85 817.99 452.53 829.83 513 829.83s119.15-11.85 174.39-35.21c53.35-22.56 101.26-54.87 142.4-96 41.14-41.14 73.44-89.05 96-142.4z"  horiz-adv-x="1024" />

    
    <glyph glyph-name="manager" unicode="&#59020;" d="M186.18 608c-22.49 0-40.73 18.25-40.73 40.73 0 22.48 18.23 40.73 40.73 40.73s40.73-18.25 40.73-40.73c0-22.48-18.23-40.73-40.73-40.73z m122.18 0c-22.49 0-40.73 18.25-40.73 40.73 0 22.48 18.23 40.73 40.73 40.73 22.49 0 40.73-18.25 40.73-40.73 0-22.48-18.23-40.73-40.73-40.73z m122.19 0c-22.49 0-40.73 18.25-40.73 40.73 0 22.48 18.23 40.73 40.73 40.73 22.49 0 40.73-18.25 40.73-40.73-0.01-22.48-18.24-40.73-40.73-40.73z m266.68-281.1c-14.87 19.02-36.83 31.24-61.82 34.41-24.75 3.14-50.37-2.85-72.15-16.82-1.84-0.94-3.6-2.04-5.23-3.3L407.91 223.9c-0.78-0.61-1.55-1.26-2.3-1.99-0.22-0.16-0.43-0.33-0.64-0.49-21.74-16.99-52.19-14.46-67.88 5.62-15.69 20.08-10.76 50.26 10.97 67.24 21.74 16.98 52.19 14.46 67.88-5.62 8.59-11 25.36-12.34 37.37-2.93 12.02 9.37 14.8 25.98 6.21 36.98-32.87 42.07-96.85 47.21-142.62 11.44-45.76-35.76-56.26-99.09-23.38-141.16 32.87-42.07 96.85-47.21 142.62-11.44 0.78 0.61 1.54 1.26 2.3 1.99 0.21 0.16 0.42 0.33 0.63 0.49l144.31 112.74c0.84 0.53 1.64 1.1 2.39 1.67 21.74 16.98 52.18 14.5 67.87-5.62 15.69-20.08 10.76-50.22-10.97-67.2-21.74-16.98-52.18-14.46-67.87 5.62-8.59 11-25.36 12.3-37.38 2.93-12.02-9.41-14.8-25.99-6.21-36.98 32.87-42.07 96.85-47.2 142.62-11.44 45.78 35.75 56.28 99.04 23.4 141.15zM64 284.1V489.36h896v-381.78c0-36.94-38.22-69.77-80.68-69.77H144.68c-46.71 0-80.68 28.76-80.68 69.77V284.1z m814.93 446.08H145.07c-46.93 0-81.07-33.72-81.07-71.64v-139.08h896V658.54c0 37.92-34.13 71.64-81.07 71.64z"  horiz-adv-x="1024" />

    
    <glyph glyph-name="search" unicode="&#59021;" d="M891.67 5.38L717.8 200.51c78.51 65.74 128.38 163.64 128.38 273.08 0 197.96-162.97 358.4-364 358.4s-364-160.44-364-358.4c0-197.96 162.97-358.4 364-358.4 58.15 0 113.07 13.49 161.82 37.36l179.65-201.6c15.86-17.79 43.95-20.04 62.73-5.02 18.78 15.05 21.15 41.66 5.29 59.45zM205.53 473.6c0 150.42 123.86 272.39 276.64 272.39 152.79 0 276.64-121.97 276.64-272.39 0-150.41-123.86-272.38-276.64-272.38-152.78 0-276.64 121.96-276.64 272.38z"  horiz-adv-x="1024" />

    
    <glyph glyph-name="approval" unicode="&#59022;" d="M158.68 820.83C150.98 828.26 139.43 832 131.73 832c-11.55 0-19.25-3.74-26.95-11.17-15.41-14.97-15.41-41.11 0-56.03L228 645.32c-30.81-41.06-50.06-97.03-50.06-153.06 0-141.89 119.37-257.57 265.69-257.57 142.48-3.74 261.84 115.69 261.84 257.57S586.1 749.89 439.78 749.89c-57.76 0-111.67-18.71-157.88-48.54L158.68 820.83z m281.1-134.46c111.67 0 200.23-85.86 200.23-194.11 0-108.26-88.56-194.12-200.23-194.12-111.67 0-200.23 85.86-200.23 194.12 0 104.57 92.42 194.11 200.23 194.11zM228-64h646.91c34.65 0 61.61 26.13 61.61 59.72V772.28c0 33.57-26.95 59.72-61.61 59.72H690.08c-23.11 0-42.36-18.66-42.36-41.06 0-14.92 7.7-26.14 15.41-33.63 77.01-59.72 123.22-153.06 123.22-253.83 0-182.94-150.18-328.57-338.86-328.57-77.01 0-150.18 26.14-207.93 70.94-30.81 18.65-73.17 0-73.17-33.57v-216.57C166.38-37.87 193.34-64 228-64z m92.41 153.06h462.08c15.41 0 30.81-14.92 30.81-29.89 0-18.66-15.4-29.83-30.81-29.83H320.41c-15.4 0-30.81 14.92-30.81 29.83 0.01 14.97 15.41 29.89 30.81 29.89z"  horiz-adv-x="1024" />

    
    <glyph glyph-name="add" unicode="&#59023;" d="M473.42 423.91l5.09 391.83c0.11 9.04 13.77 16.32 30.5 16.26 16.73-0.06 30.19-7.45 30.07-16.49l-5.09-392.36 409.85-5.1c9.04-0.11 16.32-13.84 16.26-30.67-0.06-16.83-7.44-30.38-16.48-30.27l-410.42 5.11-5.32-409.97c-0.12-9.04-13.77-16.32-30.5-16.26-16.73 0.06-30.19 7.45-30.08 16.49l5.33 410.49-392.26 4.88c-9.04 0.11-16.32 13.84-16.26 30.67 0.06 16.83 7.44 30.38 16.48 30.27l392.83-4.88z"  horiz-adv-x="1024" />

    
    <glyph glyph-name="tip" unicode="&#59024;" d="M512.3 87.58c15.55 0 29.15 5.24 40.81 15.72 11.66 10.48 17.49 24.89 17.49 43.23 0 16.25-5.77 30.07-17.3 41.47-11.53 11.4-25.46 17.1-41.79 17.1-16.32 0-30.12-5.7-41.39-17.1-11.27-11.4-16.91-25.22-16.91-41.47 0-18.6 5.9-33.08 17.68-43.43 11.8-10.34 25.6-15.52 41.41-15.52z m-43.15 258.63c2.33-24.37 6.22-42.52 11.66-54.44 5.44-11.92 15.16-17.88 29.15-17.88 13.73 0 23.58 6.16 29.54 18.48 5.96 12.31 9.84 30 11.66 53.06l16.71 193.77c1.81 17.82 2.72 35.38 2.72 52.67 0 29.35-3.76 51.81-11.27 67.41-7.52 15.59-22.41 23.39-44.7 23.39-18.4 0-33.23-6.09-44.5-18.28-11.27-12.18-16.91-29.15-16.91-50.9 0-15.98 1.16-42.32 3.5-79l12.44-188.28zM512.95-64c-247.42 0-448 200.58-448 448s200.58 448 448 448 448-200.58 448-448-200.58-448-448-448z"  horiz-adv-x="1024" />

    
    <glyph glyph-name="setting" unicode="&#59025;" d="M512.22 497.54c-63.86-0.57-115.22-51.64-114.81-114.28 0.36-62.6 52.33-113.06 116.19-112.9 63.9 0.2 115.58 50.99 115.58 113.59-0.36 63.01-52.65 113.84-116.96 113.59z m0-291.15c-99.94 0.57-180.54 80.35-180.13 178.3 0.41 97.91 81.62 177.04 181.52 176.84 99.98-0.16 180.86-79.62 180.9-177.57-0.41-98.32-81.94-177.73-182.29-177.57z m-295.8 440.87v-4.07 4.07z m597.63-528.64v-4.07 4.07zM436.79 0.03h151.1l17.39 118.35 17.31 6.97c23.34 9.49 45.29 21.83 65.29 36.73l14.62 10.75 114.28-44.55 75.51 127.19-96.77 73.59 2.32 18.08c3.63 24.4 3.63 49.16 0 73.55l-2.32 18.08 96.73 73.63-76.08 127.56-114.24-44.6-14.7 11.04c-19.71 14.94-41.5 27.24-64.71 36.57l-17.23 6.64-17.39 118.35H436.8l-17.47-118.35-17.27-6.92a296.62 296.62 0 0 1-65.33-36.78l-14.38-10.71-113.91 44.76-75.51-127.11 96.73-73.63-2.28-18.08a293.702 293.702 0 0 1-2.81-36.73c0.16-12.34 1.06-24.64 2.81-36.82l2.28-18.08-96.73-73.63 75.51-127.8 114.24 44.64 14.71-11.04a280.209 280.209 0 0 1 64.71-36.62l17.31-6.84 17.39-118.15v-0.04z m160.96-64.02H426.9c-27.25 0.12-50.14 19.59-53.39 45.45l-13.48 92.17a348.03 348.03 0 0 0-47 26.63l-90.78-35.47c-25.13-8.75-53.15 1.51-65.77 24.07l-85 143.15c-13.36 22.73-7.78 51.36 13.24 67.94l75.91 57.75c-0.81 8.79-1.26 17.59-1.3 26.43 0 8.22 0 16.9 1.3 26.39l-75.79 57.67c-21.13 16.45-26.8 45.13-13.36 67.81l85.32 144c13.24 22.65 41.42 32.38 66.14 22.89l89.81-35.19c14.94 9.98 30.58 18.94 46.96 26.6l13.77 92.81c3.46 25.66 26.31 44.88 53.39 44.88h170.89c27.16-0.16 49.97-19.63 53.23-45.41l13.73-92.21c16.33-7.62 32.09-16.58 47.04-26.59l90.66 35.43c25.09 8.79 53.15-1.47 65.77-24.03l84.83-143.19c13.32-22.73 7.78-51.32-13.23-67.9l-75.96-57.75c1.63-17.63 1.63-35.35 0-52.99l75.79-57.66c20.81-16.09 26.68-44.6 13.68-67.28l-85.5-144.37c-13.23-22.69-41.42-32.42-66.14-22.89l-89.77 35.19a359.22 359.22 0 0 0-46.96-26.64l-13.97-92.81c-3.44-25.62-26.21-44.8-53.21-44.88z"  horiz-adv-x="1024" />

    
    <glyph glyph-name="add1" unicode="&#59026;" d="M512.97 832c-247.42 0-448-200.57-448-448s200.58-448 448-448 448 200.57 448 448-200.58 448-448 448z m0-820.76C307.1 11.24 140.2 178.12 140.2 384s166.9 372.76 372.77 372.76S885.73 589.88 885.73 384 718.84 11.24 512.97 11.24zM765.32 418.95l-200.75 1.09 1.02 181.77c0.11 20.52-16.63 37.24-37.41 37.35-20.78 0.13-37.71-16.42-37.83-36.94l-1.02-181.76-214.62 1.16c-21.29 0.1-38.64-16.62-38.76-37.41-0.12-20.76 17.05-37.72 38.33-37.82l214.62-1.16-1.21-215.86c-0.11-20.52 16.63-37.24 37.41-37.38 20.78-0.1 37.71 16.45 37.83 36.97l1.21 215.86 200.74-1.09c21.29-0.1 38.64 16.65 38.76 37.41 0.13 20.78-17.03 37.71-38.32 37.81z"  horiz-adv-x="1024" />

    
    <glyph glyph-name="approval1" unicode="&#59027;" d="M414.12 444.22c61.77 33.24 103.76 98.45 103.76 173.49 0 108.68-88.12 196.78-196.81 196.78s-196.81-88.1-196.81-196.78c0-75.04 42-140.26 103.76-173.49C118.33 411.15 37.2 321.15 27 212.71c-1.17-12.45 8.72-23.17 21.21-23.17h545.71c12.5 0 22.39 10.72 21.22 23.17-10.2 108.44-91.33 198.44-201.02 231.51zM878.78 103.3c36.34 19.53 61.04 57.9 61.04 102.05 0 63.96-51.84 115.79-115.79 115.79s-115.79-51.83-115.79-115.79c0-44.15 24.71-82.52 61.04-102.05-26.72-8.04-50.56-21.87-69.75-39.79h-84.31v-76.18h39.17a143.45 143.45 0 0 1-3.37-20.26c-0.69-7.32 5.13-13.58 12.48-13.58h321.05c7.35 0 13.17 6.26 12.48 13.58-5.98 63.82-53.72 116.79-118.25 136.23zM534.58 610.12h94.24v-76.18h-94.24zM802.22 403.59h76.16v-70.35h-76.16zM666.51 610.12h94.24v-76.18h-94.24zM802.22 502.04h76.16v-70.31h-76.16zM802.22 530.18h76.16v41.85c0 21.03-17.05 38.09-38.07 38.09h-41.85v-76.18h3.77v-3.76zM495.2 63.52h85.74v-76.18H495.2zM217.07 67.28h-76.16v-41.85c0-21.03 17.05-38.09 38.08-38.09h41.85v76.18h-3.77v3.76zM375.17 63.52h85.74v-76.18h-85.74zM140.91 174.58h76.16v-76.66h-76.16zM255.14 63.52h85.74v-76.18h-85.74z"  horiz-adv-x="1024" />

    
    <glyph glyph-name="arrow_up" unicode="&#59028;" d="M512.79 501.76l353.25-353.25c21.68-21.7 56.82-21.7 78.5 0 21.68 21.65 21.68 56.84 0 78.48l-392.5 392.49c-21.68 21.7-56.82 21.7-78.5 0L81.05 227c-21.68-21.65-21.68-56.84 0-78.48 21.68-21.7 56.81-21.7 78.5 0l353.24 353.24z"  horiz-adv-x="1024" />

    
    <glyph glyph-name="arrow_down" unicode="&#59029;" d="M512 266.24L158.75 619.49c-21.68 21.7-56.82 21.7-78.5 0-21.68-21.65-21.68-56.83 0-78.48l392.5-392.49c21.68-21.7 56.82-21.7 78.5 0L943.74 541c21.68 21.65 21.68 56.83 0 78.48-21.68 21.7-56.81 21.7-78.5 0L512 266.24z"  horiz-adv-x="1024" />

    
    <glyph glyph-name="checkbox_notcheck" unicode="&#59030;" d="M214.15 832h597.33c82.48 0 149.33-66.86 149.33-149.33v-597.33c0-82.48-66.86-149.33-149.33-149.33H214.15c-82.48 0-149.33 66.86-149.33 149.33V682.67C64.82 765.14 131.67 832 214.15 832z m0-74.67c-41.24 0-74.67-33.43-74.67-74.67v-597.33c0-41.24 33.43-74.67 74.67-74.67h597.33c41.24 0 74.67 33.43 74.67 74.67V682.67c0 41.24-33.43 74.67-74.67 74.67H214.15z"  horiz-adv-x="1024" />

    
    <glyph glyph-name="checkbox_check" unicode="&#59031;" d="M430.12 322.44l-111.4 149.03c-12.35 16.51-35.74 19.89-52.26 7.55-16.51-12.35-19.89-35.74-7.55-52.26l135.16-180.81c12.88-17.23 37.62-20.04 54.04-6.13l312.84 265.03c15.73 13.33 17.68 36.89 4.35 52.62-13.33 15.73-36.88 17.68-52.61 4.35L430.12 322.44zM214.15 832h597.33c82.48 0 149.33-66.86 149.33-149.33v-597.33c0-82.47-66.86-149.33-149.33-149.33H214.15c-82.48 0-149.33 66.86-149.33 149.33V682.67C64.82 765.14 131.67 832 214.15 832z"  horiz-adv-x="1024" />

    
    <glyph glyph-name="add2" unicode="&#59032;" d="M481.22 385.83l3.01 429.9c0.07 9.05 7.46 16.33 16.49 16.27 9.05-0.07 16.33-7.46 16.25-16.49l-3.01-429.9 430.23-2.87c9.05-0.06 16.33-7.44 16.27-16.48-0.06-9.05-7.44-16.33-16.48-16.27l-430.26 2.89-2.8-400.63c-0.07-9.04-7.46-16.32-16.49-16.26-9.05 0.06-16.33 7.44-16.25 16.49l2.8 400.6-400.25 2.68c-9.05 0.06-16.33 7.44-16.27 16.48 0.06 9.05 7.44 16.33 16.48 16.27l400.28-2.68z"  horiz-adv-x="1024" />

    
    <glyph glyph-name="add3" unicode="&#59033;" d="M471.3 424.7V791.3c0 22.5 18.2 40.7 40.7 40.7 22.5 0 40.7-18.2 40.7-40.7v-366.5h366.5c22.5 0 40.7-18.2 40.7-40.7 0-22.5-18.2-40.7-40.7-40.7H552.7v-366.5c0-22.5-18.2-40.7-40.7-40.7-22.5 0-40.7 18.2-40.7 40.7V343.3H104.7C82.2 343.3 64 361.5 64 384c0 22.5 18.2 40.7 40.7 40.7h366.6z"  horiz-adv-x="1024" />

    
    <glyph glyph-name="arrow" unicode="&#59034;" d="M670.3 94.3V275.7H64V487.2h606.3V673.7L960 384 670.3 94.3zM91.2 303h606.3v-143l224 224-224 224v-148.1H91.2V303z"  horiz-adv-x="1024" />

    


  </font>
</defs>
</svg>
