<?xml version="1.0" encoding="UTF-8"?>
<svg width="41px" height="41px" viewBox="0 0 41 41" version="1.1" xmlns="http://www.w3.org/2000/svg" xmlns:xlink="http://www.w3.org/1999/xlink">
    <!-- Generator: Sketch 51.3 (57544) - http://www.bohemiancoding.com/sketch -->
    <title>Group 3 Copy</title>
    <desc>Created with Sketch.</desc>
    <defs></defs>
    <g id="Page-1" stroke="none" stroke-width="1" fill="none" fill-rule="evenodd">
        <g id="切图" transform="translate(-118.000000, -190.000000)" fill="#FF5C3B">
            <g id="Group-15" transform="translate(118.000000, 190.000000)">
                <g id="Group-3-Copy" transform="translate(1.000000, 1.000000)">
                    <path d="M19.5,40 C8.17816263,40 -1,30.8218374 -1,19.5 C-1,8.17816263 8.17816263,-1 19.5,-1 C30.8218374,-1 40,8.17816263 40,19.5 C40,30.8218374 30.8218374,40 19.5,40 Z M19.5,38 C29.7172679,38 38,29.7172679 38,19.5 C38,9.28273213 29.7172679,1 19.5,1 C9.28273213,1 1,9.28273213 1,19.5 C1,29.7172679 9.28273213,38 19.5,38 Z" id="Oval-6" fill-rule="nonzero"></path>
                    <circle id="Oval-6" cx="19.5" cy="19.5" r="11.5"></circle>
                </g>
            </g>
        </g>
    </g>
</svg>