<?xml version="1.0" encoding="UTF-8"?>
<svg width="24px" height="31px" viewBox="0 0 24 31" version="1.1" xmlns="http://www.w3.org/2000/svg" xmlns:xlink="http://www.w3.org/1999/xlink">
    <!-- Generator: Sketch 51.3 (57544) - http://www.bohemiancoding.com/sketch -->
    <title>Group 3</title>
    <desc>Created with Sketch.</desc>
    <defs></defs>
    <g id="Page-1" stroke="none" stroke-width="1" fill="none" fill-rule="evenodd">
        <g id="切图" transform="translate(-107.000000, -67.000000)" fill="#333333" fill-rule="nonzero">
            <g id="Group-5" transform="translate(108.000000, 68.000000)">
                <g id="Group-3" transform="translate(-1.000000, -1.000000)">
                    <path d="M21.9912295,12.6386188 C22.2260252,6.89381417 17.7412658,2.04493919 12.0837254,2.00031967 C6.52461192,1.95650814 2,6.43300108 2,11.9669036 C2,17.4011028 6.20119562,23.5673293 11.6890175,28.8761157 C11.8604805,29.0419751 12.1348742,29.0413999 12.307622,28.8737692 C17.6583179,23.6811213 21.7808861,17.7881291 21.9912295,12.6386188 Z M13.7004486,30.3090511 C12.7534772,31.2279716 11.2469924,31.2311296 10.2984675,30.3136034 C4.43367907,24.6401486 0,18.1326988 0,11.9669036 C0,5.32100721 5.43093816,-0.0521732459 12.0994926,0.000381821307 C18.9008626,0.0540224225 24.2699803,5.85905214 23.9895626,12.7202571 C23.7508797,18.5634226 19.4107198,24.7674489 13.7004486,30.3090511 Z" id="Stroke-3"></path>
                    <path d="M12,19 C8.13400675,19 5,15.8659932 5,12 C5,8.13400675 8.13400675,5 12,5 C15.8659932,5 19,8.13400675 19,12 C19,15.8659932 15.8659932,19 12,19 Z M12,17 C14.7614237,17 17,14.7614237 17,12 C17,9.23857625 14.7614237,7 12,7 C9.23857625,7 7,9.23857625 7,12 C7,14.7614237 9.23857625,17 12,17 Z" id="Oval-2"></path>
                </g>
            </g>
        </g>
    </g>
</svg>